<svg width="186" height="135" viewBox="0 0 186 135" fill="none" xmlns="http://www.w3.org/2000/svg">
<path d="M77.9883 41.9102V0.191406H108.75V78.9414H74.1797L31.875 30.8359V78.9414H1.17188V0.191406H43.418L77.9883 41.9102Z" fill="#FFB703"/>
<path d="M108.875 60.3086H150.184C152.82 60.3086 154.988 57.6719 154.988 55.0352C154.988 52.3984 152.82 49.7617 150.184 49.7617H108.875V60.3086ZM144.441 19H108.875V29.6055H144.441C147.078 29.6055 149.246 26.9102 149.246 24.2734C149.246 21.6367 147.078 19 144.441 19ZM168.934 38.3359C177.84 41.207 183.816 48.0039 183.816 57.9062C183.992 71.6758 172.391 79.0586 158.855 79.0586H78.1719V0.308594H153.055C166.707 0.25 178.25 7.69141 178.074 21.4023C178.074 28.9609 174.559 34.7617 168.934 38.3359Z" fill="#FB8500"/>
<rect x="1" y="79" width="183" height="24" fill="#219EBC"/>
<rect x="1" y="135" width="32" height="30" transform="rotate(-90 1 135)" fill="#219EBC"/>
<rect x="154" y="135" width="32" height="30" transform="rotate(-90 154 135)" fill="#219EBC"/>
<rect x="77" y="135" width="32" height="30" transform="rotate(-90 77 135)" fill="#219EBC"/>
</svg>
